<svg width="6" height="10" viewBox="0 0 6 10" fill="none" xmlns="http://www.w3.org/2000/svg">
<path d="M5.25 2.04102H3.75C3.47385 2.04102 3.25 2.26488 3.25 2.54102V4.04102H5.25C5.30685 4.03976 5.3608 4.06622 5.3946 4.11197C5.4284 4.15772 5.4379 4.21702 5.42 4.27102L5.05 5.37102C5.0159 5.47197 4.92155 5.54022 4.815 5.54102H3.25V9.29102C3.25 9.42907 3.13805 9.54102 3 9.54102H1.75C1.61193 9.54102 1.5 9.42907 1.5 9.29102V5.54102H0.75C0.61193 5.54102 0.5 5.42907 0.5 5.29102V4.29102C0.5 4.15297 0.61193 4.04102 0.75 4.04102H1.5V2.54102C1.5 1.43645 2.39545 0.541016 3.5 0.541016H5.25C5.38805 0.541016 5.5 0.652946 5.5 0.791016V1.79102C5.5 1.92909 5.38805 2.04102 5.25 2.04102Z" fill="#FC4308"/>
</svg>
