<svg width="10" height="10" viewBox="0 0 10 10" fill="none" xmlns="http://www.w3.org/2000/svg">
<path fill-rule="evenodd" clip-rule="evenodd" d="M7 0.541016H3C1.61929 0.541016 0.5 1.66031 0.5 3.04102V7.04102C0.5 8.42172 1.61929 9.54102 3 9.54102H7C8.3807 9.54102 9.5 8.42172 9.5 7.04102V3.04102C9.5 1.66031 8.3807 0.541016 7 0.541016ZM8.625 7.04102C8.62225 7.93732 7.8963 8.66327 7 8.66602H3C2.10368 8.66327 1.37774 7.93732 1.375 7.04102V3.04102C1.37774 2.14469 2.10368 1.41876 3 1.41602H7C7.8963 1.41876 8.62225 2.14469 8.625 3.04102V7.04102ZM7.375 3.16602C7.65115 3.16602 7.875 2.94216 7.875 2.66602C7.875 2.38988 7.65115 2.16602 7.375 2.16602C7.09885 2.16602 6.875 2.38988 6.875 2.66602C6.875 2.94216 7.09885 3.16602 7.375 3.16602ZM5 2.79102C3.75736 2.79102 2.75 3.79838 2.75 5.04102C2.75 6.28367 3.75736 7.29102 5 7.29102C6.24265 7.29102 7.25 6.28367 7.25 5.04102C7.25135 4.44387 7.0147 3.8708 6.59245 3.44856C6.1702 3.02631 5.59715 2.78969 5 2.79102ZM3.625 5.04102C3.625 5.80042 4.2406 6.41602 5 6.41602C5.7594 6.41602 6.375 5.80042 6.375 5.04102C6.375 4.28162 5.7594 3.66602 5 3.66602C4.2406 3.66602 3.625 4.28162 3.625 5.04102Z" fill="#FC4308"/>
</svg>
