<svg width="10" height="10" viewBox="0 0 10 10" fill="none" xmlns="http://www.w3.org/2000/svg">
<path fill-rule="evenodd" clip-rule="evenodd" d="M1.5 0.541016H8.5C9.0523 0.541016 9.5 0.988731 9.5 1.54102V8.54102C9.5 9.09332 9.0523 9.54102 8.5 9.54102H1.5C0.947715 9.54102 0.5 9.09332 0.5 8.54102V1.54102C0.5 0.988731 0.947715 0.541016 1.5 0.541016ZM3 8.04102C3.13807 8.04102 3.25 7.92907 3.25 7.79102V4.29102C3.25 4.15297 3.13807 4.04102 3 4.04102H2.25C2.11193 4.04102 2 4.15297 2 4.29102V7.79102C2 7.92907 2.11193 8.04102 2.25 8.04102H3ZM2.625 3.54102C2.21079 3.54102 1.875 3.20523 1.875 2.79102C1.875 2.3768 2.21079 2.04102 2.625 2.04102C3.03922 2.04102 3.375 2.3768 3.375 2.79102C3.375 3.20523 3.03922 3.54102 2.625 3.54102ZM7.75 8.04102C7.88805 8.04102 8 7.92907 8 7.79102V5.49102C8.01625 4.69642 7.4288 4.01828 6.64 3.92102C6.0885 3.87064 5.55415 4.12822 5.25 4.59102V4.29102C5.25 4.15297 5.13805 4.04102 5 4.04102H4.25C4.11195 4.04102 4 4.15297 4 4.29102V7.79102C4 7.92907 4.11195 8.04102 4.25 8.04102H5C5.13805 8.04102 5.25 7.92907 5.25 7.79102V5.91602C5.25 5.50182 5.5858 5.16602 6 5.16602C6.4142 5.16602 6.75 5.50182 6.75 5.91602V7.79102C6.75 7.92907 6.86195 8.04102 7 8.04102H7.75Z" fill="#FC4308"/>
</svg>
