<svg width="21" height="10" viewBox="0 0 21 10" fill="none" xmlns="http://www.w3.org/2000/svg">
<path d="M9.05867 9.08579C9.04689 9.08191 9.03564 9.07645 9.02457 9.06976L6.32082 7.38946C6.31836 7.3877 6.31572 7.38611 6.31361 7.38488C6.31063 7.38364 6.30817 7.38188 6.30518 7.3803L6.30131 7.37783L3.45187 7.40637C3.39808 7.40672 3.35028 7.38188 3.31917 7.34277C3.30774 7.33943 3.29649 7.3352 3.2856 7.32938C3.26925 7.32058 3.25501 7.30965 3.24271 7.29662C3.23181 7.29327 3.22127 7.28869 3.21125 7.28323L2.22892 6.7364C2.22259 6.73341 2.21679 6.73006 2.21046 6.72636L2.20712 6.72425L0.116971 5.56119C0.100977 5.55238 0.08674 5.54093 0.0749643 5.52789C-0.000964764 5.47733 -0.0229359 5.37516 0.0262797 5.29799C0.518435 4.5227 1.22868 3.87647 2.08021 3.42904C2.90119 2.99761 3.85279 2.75098 4.86621 2.75098C5.33866 2.75098 5.79775 2.80436 6.23609 2.90548C6.23907 2.88646 6.24575 2.86761 6.25577 2.84999C6.68287 2.09828 7.30312 1.47059 8.04855 1.03579C8.76883 0.61563 9.60579 0.375 10.4981 0.375C11.3856 0.375 12.2183 0.612825 12.936 1.02876C13.6784 1.45896 14.2974 2.07979 14.7266 2.82532L14.727 2.82655C15.1767 2.71997 15.648 2.66324 16.1338 2.66324C17.1476 2.66324 18.0992 2.90988 18.9198 3.34131C19.7715 3.78877 20.4816 4.43478 20.9737 5.21025C21.0229 5.28777 21.001 5.38995 20.925 5.44015C20.9133 5.45319 20.899 5.46411 20.883 5.47345L18.7929 6.63651L18.7895 6.63862C18.7837 6.6425 18.7774 6.64584 18.7711 6.64866L17.7888 7.19549C17.7787 7.2013 17.7678 7.20553 17.7573 7.20888C17.7452 7.22191 17.7308 7.23284 17.7144 7.24164C17.6863 7.2568 17.656 7.26314 17.6262 7.26138L14.7138 7.2908C14.7029 7.31105 14.6872 7.32902 14.6681 7.34382C14.6567 7.35721 14.6433 7.36902 14.6273 7.3787L12.8073 8.49545C12.804 8.49756 12.801 8.49967 12.7976 8.50126L11.9389 9.02783C11.9301 9.0333 11.9213 9.03752 11.912 9.04122C11.8981 9.05637 11.8817 9.06906 11.8624 9.07822C11.7793 9.11909 11.6793 9.08456 11.6385 9.00124C11.5327 8.78437 11.3671 8.60133 11.1631 8.4738C10.9666 8.35084 10.7335 8.27984 10.4839 8.27984C10.2285 8.27984 9.99126 8.35401 9.79265 8.48138C9.58683 8.61315 9.42144 8.80253 9.31773 9.0273C9.27906 9.11151 9.17958 9.14851 9.09522 9.1094C9.08133 9.10306 9.06868 9.09513 9.05743 9.08544L9.05867 9.08579ZM6.63596 7.19041L7.25621 7.57604C7.58049 7.04771 8.02972 6.60538 8.56228 6.29054C9.1263 5.95723 9.78399 5.76573 10.4853 5.76573C11.1817 5.76573 11.8342 5.95388 12.3948 6.28261C12.9256 6.59372 13.375 7.03098 13.7008 7.55417L14.3434 7.16026C13.9487 6.52639 13.4024 5.9963 12.7552 5.62144C12.0879 5.2351 11.3127 5.01364 10.4855 5.01364C9.65305 5.01364 8.87374 5.23755 8.2039 5.62811C7.56308 6.00194 7.02174 6.52797 6.62943 7.15724C6.63277 7.16781 6.63523 7.17873 6.63664 7.19053L6.63596 7.19041ZM7.54058 7.75239L8.18019 8.14983C8.40656 7.77987 8.71909 7.46788 9.08976 7.24361C9.49753 6.99644 9.97508 6.85463 10.4856 6.85463V6.85551C10.9808 6.85251 11.4474 6.9894 11.851 7.23057C12.2192 7.45078 12.535 7.75751 12.7723 8.12461L13.4165 7.72929C13.12 7.25485 12.711 6.85708 12.2264 6.57345C11.7153 6.27414 11.1207 6.10289 10.4862 6.10289C9.84622 6.10289 9.24724 6.27712 8.73417 6.58031C8.24696 6.86816 7.83674 7.27194 7.54144 7.75306L7.54058 7.75239ZM8.46491 8.32686L9.10204 8.72289C9.23053 8.51166 9.40611 8.33232 9.6144 8.19879C9.86645 8.03707 10.1654 7.94334 10.4853 7.94334C10.7994 7.94334 11.0929 8.03337 11.3416 8.18875C11.5453 8.31629 11.7188 8.48753 11.8485 8.69047L12.4863 8.29903C12.2772 7.97822 12.0005 7.71008 11.6787 7.51773C11.326 7.30686 10.9185 7.18724 10.486 7.19024L10.4851 7.19112C10.0375 7.19112 9.61915 7.31531 9.26216 7.53165C8.93665 7.72861 8.66246 8.00221 8.46422 8.3267L8.46491 8.32686ZM3.63875 7.06919L6.07446 7.0447C5.9669 6.91416 5.83384 6.80141 5.68146 6.71297C5.44717 6.57662 5.16735 6.49752 4.86629 6.49752C4.57101 6.49752 4.29683 6.57327 4.06551 6.7047C3.89801 6.79983 3.75265 6.92403 3.63841 7.06919L3.63875 7.06919ZM14.9302 6.95309L17.3194 6.92913C17.2127 6.80617 17.0825 6.70064 16.9355 6.61732C16.7041 6.48607 16.4299 6.41014 16.1348 6.41014C15.8337 6.41014 15.5544 6.48924 15.3196 6.62559C15.1688 6.71315 15.037 6.8243 14.9299 6.95344L14.9302 6.95309ZM0.403158 5.33589L1.17635 5.76609C1.55143 5.21291 2.07166 4.75046 2.68859 4.42246C3.32905 4.08228 4.07322 3.88745 4.8668 3.88745C5.51644 3.88745 6.13332 4.01834 6.6882 4.25317C7.25554 4.49311 7.75579 4.84122 8.15755 5.26808C8.42418 5.12292 8.70559 5.00172 8.99909 4.90729C8.52665 4.36258 7.92605 3.91389 7.23831 3.5982C6.52648 3.27159 5.72094 3.08714 4.86675 3.08714C3.9071 3.08714 3.00841 3.3195 2.23527 3.72574C1.48862 4.11807 0.858193 4.67246 0.402618 5.33537L0.403158 5.33589ZM1.47107 5.93029L2.24584 6.36138C2.51967 5.97028 2.88666 5.64421 3.31587 5.41132C3.77441 5.16292 4.30436 5.02199 4.86716 5.02498V5.0241C5.32782 5.0241 5.76634 5.11712 6.16058 5.28377C6.5499 5.44831 6.89544 5.68491 7.17594 5.9742C7.38808 5.77812 7.61728 5.60036 7.86122 5.44374C7.50003 5.07467 7.05693 4.77325 6.55848 4.56237C6.04576 4.34551 5.47243 4.2243 4.86693 4.2243C4.12875 4.2243 3.4378 4.40488 2.84481 4.72021C2.28588 5.01688 1.8138 5.43332 1.47071 5.93031L1.47107 5.93029ZM2.54074 6.52555L3.3088 6.95276C3.45872 6.73396 3.66155 6.54864 3.9013 6.41261C4.18269 6.253 4.51363 6.16087 4.86711 6.16087C5.2283 6.16087 5.56544 6.25688 5.85016 6.4223C6.06512 6.54738 6.25002 6.71228 6.3924 6.90554C6.55322 6.65767 6.73584 6.42478 6.93796 6.21056C6.68768 5.95177 6.37904 5.74036 6.03086 5.59311C5.67846 5.44408 5.28422 5.36075 4.86716 5.36075L4.86628 5.35987C4.36184 5.35687 3.88606 5.48354 3.47409 5.70674C3.10165 5.90828 2.78193 6.18962 2.54062 6.52507L2.54074 6.52555ZM7.58963 3.39645C7.81513 3.51131 8.03149 3.64009 8.23643 3.78208C8.4716 3.42129 8.79077 3.12003 9.16585 2.90617C9.55973 2.68173 10.0149 2.55348 10.4992 2.55348V2.55436C10.9583 2.5519 11.3924 2.66923 11.775 2.87851C12.148 3.08269 12.4714 3.37388 12.7203 3.72588C12.9252 3.58142 13.141 3.45017 13.3674 3.33232C13.0583 2.87217 12.6423 2.49041 12.1547 2.22315C11.6638 1.95415 11.0998 1.8014 10.4992 1.8014C9.87717 1.8014 9.29399 1.96559 8.79077 2.25312C8.3041 2.53129 7.89123 2.92487 7.58927 3.39629L7.58963 3.39645ZM8.50676 3.98062C8.70924 4.13882 8.89906 4.31058 9.07446 4.49326C9.20541 4.25085 9.39663 4.04579 9.62794 3.89727C9.87999 3.73555 10.179 3.64183 10.4988 3.64183C10.8129 3.64183 11.1064 3.73185 11.3551 3.88723C11.5755 4.02535 11.7608 4.21508 11.8935 4.44042C12.0661 4.25738 12.2526 4.08561 12.4515 3.92651C12.2315 3.61205 11.945 3.35272 11.6145 3.17214C11.2802 2.9891 10.9006 2.8864 10.4995 2.88887L10.4986 2.88975C10.0733 2.88975 9.67467 3.00179 9.33069 3.19786C8.99674 3.38813 8.7134 3.65747 8.50638 3.98042L8.50676 3.98062ZM9.31262 4.7593C9.3265 4.77568 9.33986 4.79259 9.35375 4.80898C9.71705 4.7223 10.0958 4.67685 10.4851 4.67685C10.8627 4.67685 11.2302 4.71984 11.5833 4.8014C11.6077 4.77022 11.6325 4.73957 11.6576 4.70874C11.6559 4.70627 11.6547 4.70328 11.6534 4.70081C11.5476 4.48395 11.382 4.30091 11.178 4.17338C10.9815 4.05041 10.7484 3.97941 10.4989 3.97941C10.2435 3.97941 10.0062 4.05358 9.80759 4.18095C9.60178 4.31273 9.43639 4.50211 9.33267 4.72688C9.32722 4.73868 9.32054 4.74995 9.31246 4.75964L9.31262 4.7593ZM6.5623 2.9902C6.81083 3.06225 7.05162 3.14981 7.2838 3.25163C7.61686 2.71838 8.07841 2.27339 8.62519 1.96068C9.17831 1.64463 9.81791 1.46405 10.499 1.46405C11.1558 1.46405 11.7748 1.63246 12.3145 1.92789C12.8637 2.22878 13.3304 2.66196 13.6717 3.18398C13.9035 3.08005 14.1441 2.99038 14.3923 2.91586C13.9955 2.25629 13.4356 1.70576 12.7688 1.31926C12.1015 0.932928 11.3263 0.711465 10.499 0.711465C9.66664 0.711465 8.88733 0.935372 8.21749 1.32594C7.53167 1.72584 6.95974 2.30084 6.56253 2.9895L6.5623 2.9902ZM17.6932 6.86519L18.4612 6.43799C18.2197 6.10256 17.8997 5.82175 17.5278 5.61966C17.1158 5.39664 16.6403 5.2698 16.1356 5.27279L16.1347 5.27367C15.6934 5.27367 15.2768 5.36757 14.908 5.53387C14.559 5.69136 14.2525 5.91404 14.0076 6.18429C14.2134 6.39939 14.3999 6.63387 14.5641 6.88386C14.7115 6.66242 14.9131 6.47427 15.152 6.33546C15.4367 6.17004 15.774 6.07402 16.135 6.07402C16.4886 6.07402 16.82 6.16616 17.1008 6.32577C17.3406 6.46177 17.5434 6.64692 17.6933 6.86592L17.6932 6.86519ZM18.756 6.27381L19.5308 5.84273C19.1877 5.3456 18.7156 4.92929 18.1567 4.63263C17.5636 4.31729 16.8724 4.13672 16.1345 4.13672C15.4949 4.13672 14.891 4.2722 14.356 4.51302C13.863 4.73482 13.4275 5.04627 13.076 5.42312C13.3217 5.57797 13.553 5.75396 13.7667 5.94933C14.0409 5.64915 14.3824 5.40215 14.7696 5.22739C15.1812 5.04136 15.6447 4.93689 16.134 4.93689V4.93777C16.6968 4.93477 17.2267 5.07588 17.6853 5.32411C18.1145 5.55647 18.4815 5.88311 18.7554 6.27416L18.756 6.27381ZM19.8252 5.67905L20.5984 5.24884C20.1428 4.58593 19.5123 4.03153 18.7657 3.63921C17.9925 3.23297 17.0939 3.00061 16.1342 3.00061C15.2482 3.00061 14.4146 3.19845 13.6838 3.54866C12.9976 3.87703 12.4012 4.33965 11.9367 4.89775C12.2302 4.98953 12.5125 5.10827 12.7794 5.25131C13.1703 4.816 13.6609 4.4582 14.2191 4.207C14.7974 3.9468 15.4475 3.80041 16.134 3.80041C16.9278 3.80041 17.672 3.99525 18.3123 4.33542C18.9292 4.66326 19.4494 5.12587 19.8245 5.67905L19.8252 5.67905Z" fill="#FC4308"/>
</svg>
