<svg width="10" height="8" viewBox="0 0 10 8" fill="none" xmlns="http://www.w3.org/2000/svg">
<path d="M9.48683 1.32477C9.25463 1.63453 8.97393 1.90473 8.65558 2.12495C8.65558 2.20586 8.65558 2.28678 8.65558 2.37219C8.65813 3.84162 8.07118 5.25062 7.02633 6.28332C5.98143 7.31602 4.56603 7.88602 3.09745 7.86552C2.24842 7.86837 1.41026 7.67452 0.648638 7.29912C0.607568 7.28117 0.581083 7.24056 0.581238 7.19571V7.14627C0.581238 7.08172 0.633543 7.02942 0.698063 7.02942C1.53264 7.00187 2.33744 6.71252 2.9986 6.20227C2.24319 6.18702 1.56352 5.73952 1.25073 5.05142C1.23493 5.01387 1.23985 4.97072 1.26371 4.93767C1.28757 4.90462 1.32693 4.88642 1.36755 4.88962C1.59714 4.91267 1.82902 4.89132 2.05053 4.82667C1.21662 4.65357 0.590033 3.96127 0.500358 3.11392C0.497173 3.07327 0.515388 3.03392 0.548428 3.01002C0.581463 2.98617 0.624548 2.98122 0.662118 2.99707C0.885898 3.09582 1.12747 3.14782 1.37205 3.14987C0.641348 2.6703 0.325733 1.75809 0.603703 0.929175C0.632398 0.84863 0.701333 0.789125 0.785178 0.772535C0.869018 0.75594 0.955408 0.784705 1.01259 0.84826C1.99862 1.89769 3.35345 2.52305 4.79138 2.59246C4.75458 2.44549 4.73648 2.29445 4.73748 2.14293C4.75093 1.34843 5.24253 0.64067 5.98213 0.351C6.72168 0.0613353 7.56288 0.247081 8.11193 0.821286C8.48613 0.749991 8.84793 0.62429 9.18578 0.44817C9.21053 0.43272 9.24193 0.43272 9.26668 0.44817C9.28213 0.47293 9.28213 0.504325 9.26668 0.529085C9.10303 0.903825 8.82658 1.21813 8.47588 1.42816C8.78298 1.39255 9.08468 1.3201 9.37453 1.21239C9.39893 1.19578 9.43098 1.19578 9.45538 1.21239C9.47583 1.22174 9.49113 1.23962 9.49718 1.26128C9.50323 1.28293 9.49943 1.30616 9.48683 1.32477Z" fill="#FC4308"/>
</svg>
